<?xml version="1.0" encoding="UTF-8"?>
<!DOCTYPE svg PUBLIC "-//W3C//DTD SVG 1.1//EN" "http://www.w3.org/Graphics/SVG/1.1/DTD/svg11.dtd">
<svg xmlns="http://www.w3.org/2000/svg" version="1.1" width="512px" height="512px" style="shape-rendering:geometricPrecision; text-rendering:geometricPrecision; image-rendering:optimizeQuality; fill-rule:evenodd; clip-rule:evenodd" xmlns:xlink="http://www.w3.org/1999/xlink">
<g><path style="opacity:0.996" fill="#00b6d9" d="M 67.5,-0.5 C 142.5,-0.5 217.5,-0.5 292.5,-0.5C 330.154,6.98732 352.654,29.654 360,67.5C 360.667,87.1667 360.667,106.833 360,126.5C 354.657,137.752 345.824,141.919 333.5,139C 327.333,136.833 323.167,132.667 321,126.5C 320.667,110.833 320.333,95.1667 320,79.5C 317.642,56.1419 304.809,42.9752 281.5,40C 213.833,39.3333 146.167,39.3333 78.5,40C 55.2,42.9666 42.3667,56.1333 40,79.5C 39.3333,196.833 39.3333,314.167 40,431.5C 42.3749,454.875 55.2082,468.041 78.5,471C 148.857,471.974 219.19,471.64 289.5,470C 308.377,464.083 318.544,451.25 320,431.5C 320.333,415.833 320.667,400.167 321,384.5C 326.343,373.248 335.176,369.081 347.5,372C 353.667,374.167 357.833,378.333 360,384.5C 360.667,404.167 360.667,423.833 360,443.5C 352.654,481.346 330.154,504.013 292.5,511.5C 217.5,511.5 142.5,511.5 67.5,511.5C 29.8333,503.833 7.16667,481.167 -0.5,443.5C -0.5,318.167 -0.5,192.833 -0.5,67.5C 7.16667,29.8333 29.8333,7.16667 67.5,-0.5 Z"/></g>
<g><path style="opacity:0.991" fill="#00b6d9" d="M 511.5,246.5 C 511.5,253.167 511.5,259.833 511.5,266.5C 509.385,274.4 505.885,281.734 501,288.5C 484.167,305.333 467.333,322.167 450.5,339C 435.428,346.645 424.594,342.812 418,327.5C 416.838,321.443 417.838,315.777 421,310.5C 432.167,299.333 443.333,288.167 454.5,277C 372.5,276.667 290.5,276.333 208.5,276C 195.296,269.318 191.796,259.151 198,245.5C 200.596,241.61 204.096,238.777 208.5,237C 290.5,236.667 372.5,236.333 454.5,236C 443.333,224.833 432.167,213.667 421,202.5C 414.488,190.061 416.988,179.895 428.5,172C 436.157,169.512 443.49,170.178 450.5,174C 467.333,190.833 484.167,207.667 501,224.5C 505.885,231.266 509.385,238.6 511.5,246.5 Z"/></g>
</svg>
