<svg width="90" height="72" viewBox="0 0 90 72" fill="none" xmlns="http://www.w3.org/2000/svg">
<path fill-rule="evenodd" clip-rule="evenodd" d="M87.8842 20.7703C87.8892 20.734 87.8938 20.7006 87.8986 20.6659C87.9376 20.4214 87.9714 20.1768 88.0023 19.9286C88.0073 19.8875 88.0137 19.8473 88.0201 19.8057C88.0235 19.7763 88.0249 19.7452 88.0281 19.7141C88.1083 19.4475 88.1359 19.1676 88.1094 18.8905C88.1094 18.8364 88.1158 18.7824 88.119 18.7281C88.135 18.4841 88.151 18.2375 88.1595 17.9899C88.1595 17.925 88.164 17.859 88.1677 17.795C88.1755 17.5094 88.249 17.2721 88.2476 16.9814C88.2476 16.9195 88.2287 16.8158 88.2287 16.7525C88.2241 16.4932 88.215 16.2657 88.2054 16.0009C88.2573 15.9709 88.2077 15.8722 88.2054 15.8204C88.191 15.5206 88.1553 15.2257 88.1277 14.9232C88.1227 14.8558 88.1213 14.7402 88.1149 14.6696C88.0886 14.3854 88.069 14.1763 88.0331 13.888C88.0281 13.8588 88.0041 13.7813 88.0027 13.7507C87.9609 13.44 87.9209 13.1866 87.8691 12.8704C87.8563 12.798 87.846 12.6824 87.8346 12.6086C87.7763 12.2883 87.6374 11.9278 87.5696 11.602L84.0967 12.1812C84.1581 12.4786 84.2116 12.7761 84.2616 13.0671C84.2744 13.1357 84.2872 13.2045 84.297 13.2725C84.3457 13.5613 84.3889 13.8496 84.4266 14.1348C84.4298 14.1654 84.4348 14.1983 84.4362 14.2303C84.4702 14.4912 84.4992 14.7505 84.5234 15.0082C84.5303 15.0728 84.5349 15.1377 84.5413 15.2003C84.5643 15.4795 84.5872 15.7541 84.5984 16.0278C84.6016 16.0781 84.6029 16.1288 84.6061 16.1779C84.6162 16.418 84.624 16.6566 84.6258 16.893C84.6258 16.9527 84.629 17.0107 84.629 17.0687C84.629 17.3356 84.629 17.6006 84.6176 17.8622C84.6176 17.9218 84.6144 17.9798 84.6125 18.0379C84.6029 18.2668 84.5915 18.4987 84.5757 18.7276C84.5726 18.7733 84.5689 18.819 84.5675 18.8649C84.5479 19.1233 84.5216 19.3787 84.4931 19.633C84.4867 19.6936 84.4784 19.7534 84.4702 19.8162C84.443 20.0509 84.4103 20.2857 84.3731 20.5172C84.3699 20.5414 84.3667 20.5688 84.3617 20.5946C84.3199 20.8448 84.2744 21.0943 84.2239 21.3408C84.2129 21.3986 84.2013 21.4571 84.1881 21.5137C84.1625 21.6442 84.1303 21.7733 84.0994 21.9024C84.0457 22.1311 83.9872 22.36 83.9276 22.5864C83.8986 22.6871 83.8712 22.7877 83.8435 22.8875C83.7658 23.1557 83.6813 23.4205 83.5927 23.6837C83.578 23.7294 83.5653 23.7753 83.5509 23.821C83.4439 24.1258 83.3286 24.4255 83.2072 24.7212C83.1753 24.8007 83.1412 24.8813 83.1054 24.9613C83.0135 25.1783 82.9178 25.3938 82.8191 25.6019C82.7732 25.6935 82.7272 25.7876 82.6845 25.8806C82.5813 26.091 82.473 26.2994 82.3594 26.5052C82.319 26.5774 82.2836 26.6512 82.2413 26.7234C82.0878 26.9949 81.9301 27.2608 81.7654 27.5228C81.7332 27.5742 81.6973 27.6245 81.6637 27.678C81.526 27.8868 81.3882 28.0935 81.2429 28.2957C81.186 28.3778 81.1264 28.4573 81.0665 28.5374C80.9352 28.7168 80.7992 28.8911 80.6637 29.0627C80.6055 29.1374 80.5465 29.2114 80.4869 29.2848C80.3032 29.508 80.1134 29.7275 79.916 29.9423C79.9062 29.9558 79.8954 29.9688 79.8838 29.9807C79.6779 30.2052 79.4638 30.4232 79.2457 30.6364C79.1776 30.7035 79.1079 30.7668 79.0398 30.8312C78.8813 30.9809 78.7248 31.1269 78.5607 31.2715C78.4835 31.3403 78.4058 31.4081 78.3279 31.4755C78.1481 31.6279 77.964 31.7762 77.7766 31.9222C77.7218 31.9679 77.6649 32.0138 77.6085 32.0595C77.3658 32.2452 77.1177 32.425 76.8641 32.5989C76.8045 32.6407 76.7431 32.6791 76.6805 32.7202C76.4831 32.852 76.2804 32.9825 76.0782 33.1065C75.9923 33.1595 75.9064 33.2112 75.8191 33.2617C75.6247 33.3763 75.4273 33.4883 75.227 33.5975C75.1493 33.6395 75.07 33.6834 74.9923 33.7252C74.7166 33.8694 74.4342 34.0101 74.1475 34.1428C74.1283 34.1511 74.1084 34.1598 74.0878 34.1675C73.8255 34.2888 73.558 34.4028 73.2866 34.5123C73.1797 34.558 73.0716 34.595 72.9652 34.6361C72.7662 34.7136 72.564 34.7885 72.3581 34.8586C72.2434 34.8984 72.1253 34.9368 72.0086 34.9758C71.8093 35.0416 71.604 35.1019 71.3999 35.162C71.2818 35.1963 71.1639 35.2297 71.044 35.2621C70.824 35.3231 70.6005 35.377 70.3773 35.4291C70.2722 35.4536 70.1701 35.4805 70.065 35.5024C69.7495 35.5724 69.4319 35.6329 69.11 35.6854C69.0451 35.6973 68.9805 35.706 68.9161 35.7165C68.652 35.7581 68.3883 35.7958 68.1215 35.8278C68.0175 35.8406 67.9156 35.8524 67.8121 35.8625C67.5565 35.8908 67.2992 35.9128 67.0404 35.9322C66.9579 35.9377 66.8752 35.9454 66.7943 35.9491C66.4416 35.971 66.0849 35.9852 65.7276 35.9902C65.5108 35.993 65.2921 35.993 65.0721 35.9902C65.0059 35.9902 64.9378 35.9861 64.8699 35.9838C64.7258 35.9811 64.5805 35.977 64.4331 35.9706C64.3374 35.9665 64.2401 35.9619 64.1418 35.955C64.0169 35.9491 63.8923 35.9422 63.766 35.9331C63.6787 35.9267 63.5864 35.9192 63.4973 35.9114C63.3209 35.8972 63.1478 35.8826 62.9714 35.8657C62.7569 35.8438 62.5446 35.818 62.3342 35.7885C62.2625 35.778 62.1932 35.7679 62.1233 35.7558C61.9856 35.7352 61.8476 35.7161 61.7098 35.6914C61.6257 35.6772 61.5417 35.6608 61.459 35.6457C61.336 35.6228 61.2161 35.5998 61.0966 35.5746C61.0107 35.5568 60.9248 35.5372 60.8394 35.5184C60.7226 35.4919 60.6061 35.4654 60.4912 35.4369C60.4167 35.4186 60.3408 35.4008 60.268 35.3811C60.0544 35.3258 59.8421 35.2676 59.6321 35.2054C59.6077 35.1977 59.5817 35.1913 59.5558 35.1826C59.3262 35.1124 59.0964 35.038 58.8668 34.9578C58.8103 34.9381 58.7519 34.9167 58.6936 34.897C58.5058 34.8289 58.3196 34.7597 58.135 34.6852C58.0891 34.6688 58.0432 34.6516 58.0027 34.6338C57.7841 34.5424 57.5659 34.4508 57.3505 34.3549C57.3082 34.3341 57.2646 34.3149 57.2241 34.2957C56.9687 34.1794 56.716 34.0569 56.4665 33.9297C56.4569 33.9242 56.4487 33.9201 56.4407 33.9164C56.1901 33.7874 55.9456 33.6528 55.7012 33.515C55.6552 33.4867 55.6093 33.462 55.5634 33.4351C55.3274 33.2977 55.0989 33.1604 54.8707 33.0167L54.7329 32.9276C54.5949 32.841 54.464 32.7494 54.3286 32.659C54.1492 32.539 53.9705 32.4159 53.793 32.2898C53.6822 32.2109 53.5726 32.1337 53.464 32.0535C53.2863 31.9217 53.1099 31.789 52.9367 31.6535C52.836 31.5758 52.7327 31.4986 52.634 31.4184C52.446 31.2688 52.26 31.1141 52.0741 30.9608C51.9913 30.8913 51.9059 30.8235 51.8232 30.7508C51.5607 30.5274 51.3023 30.2987 51.0478 30.0643C51.0414 30.0611 51.0361 30.0565 51.0316 30.051C50.7423 29.7881 50.4574 29.518 50.1725 29.2429C49.1285 28.2295 47.9167 27.2873 46.9519 26.2229L46.9059 26.1699L47.534 26.8772L47.5904 26.9405C47.6823 27.0437 47.7741 27.1482 47.8662 27.2507C47.9032 27.2905 47.9386 27.3302 47.9758 27.3704C48.0218 27.4246 48.0713 27.4785 48.1198 27.532C48.2427 27.6693 48.369 27.8002 48.4935 27.9343C48.6181 28.0684 48.7449 28.2089 48.8726 28.3462C49.0503 28.5375 49.2317 28.7241 49.4133 28.9117C49.536 29.0394 49.6557 29.1685 49.7807 29.2939C49.9815 29.4965 50.1819 29.6978 50.3843 29.8964C50.4896 29.9985 50.5911 30.1152 50.6982 30.2167C50.9635 30.5269 51.263 30.8063 51.5906 31.0501C51.5986 31.0579 51.6269 31.0835 51.6338 31.0931C51.9137 31.3512 52.1558 31.6565 52.4915 31.8618C52.5835 31.9391 52.6927 31.9946 52.7846 32.0718C52.9358 32.1986 53.075 32.3519 53.2289 32.476C53.2776 32.5157 53.3064 32.5555 53.3585 32.5957C53.4291 32.7376 53.6 32.7762 53.7117 32.8621C53.9009 33.0081 54.0754 33.1248 54.268 33.2662C54.388 33.3535 54.5371 33.446 54.6603 33.5319C54.7398 33.5906 54.817 33.6692 54.8974 33.7257C55.0076 33.8015 55.1234 33.8739 55.2335 33.9489C55.3126 34.0001 55.393 34.0318 55.4711 34.0821C55.5492 34.1323 55.6089 34.1826 55.682 34.2281C55.7306 34.2591 55.7775 34.2998 55.8243 34.3309C56.0784 34.4883 56.2929 34.6197 56.5488 34.7688C56.5666 34.7793 56.5888 34.8145 56.6048 34.8248C56.6324 34.8408 56.6907 34.8486 56.7169 34.8637C56.987 35.0174 57.1764 35.1565 57.4519 35.2975C57.4583 35.3012 57.536 35.308 57.5438 35.3103C57.8159 35.4501 58.0359 35.6034 58.3155 35.7311C58.3431 35.7453 58.4 35.7729 58.4277 35.7871C58.4217 35.8744 58.5131 35.8136 58.5309 35.8214C58.7608 35.9258 58.9954 35.9285 59.2335 36.024C59.2467 36.0291 59.2618 36.0323 59.2767 36.0387C59.3105 36.0528 59.3413 36.067 59.3772 36.0816C59.5766 36.1604 59.7736 36.2381 59.9744 36.3105C60.0135 36.3242 60.0585 36.3343 60.0975 36.3484C60.1231 36.3571 60.1489 36.3654 60.1752 36.3731C60.4226 36.4597 60.6717 36.5424 60.9243 36.6185C60.9298 36.6196 60.9353 36.6212 60.9403 36.6235C60.9602 36.6299 60.979 36.634 60.9988 36.6404C61.2284 36.709 61.4647 36.7736 61.7011 36.8335C61.737 36.8431 61.7706 36.8531 61.8065 36.8623C61.8421 36.8714 61.8903 36.8817 61.9326 36.8927C62.0616 36.9246 62.1912 36.9539 62.3228 36.984C62.3806 36.9968 62.4343 37.0119 62.4907 37.0224C62.5247 37.0302 62.5588 37.0368 62.5928 37.0432C62.7256 37.072 62.8629 37.0976 62.9956 37.1223C63.0605 37.1346 63.1238 37.1492 63.19 37.1606L63.2611 37.1707C63.4087 37.197 63.5592 37.2166 63.7077 37.2422C63.7742 37.2509 63.8373 37.2641 63.9038 37.2728C63.9168 37.274 63.9296 37.2758 63.9424 37.2783C64.1722 37.3089 64.3991 37.3372 64.6314 37.3608C64.6572 37.3608 64.6835 37.3672 64.7073 37.3699C64.7313 37.3727 64.7564 37.3736 64.7822 37.3763C64.8078 37.3791 64.8322 37.38 64.8567 37.3841L64.9309 37.3909C65.0182 37.3983 65.1091 37.4033 65.1962 37.411C65.2627 37.4165 65.3276 37.4243 65.3922 37.4293C65.4249 37.4321 65.4571 37.4321 65.4891 37.4344C65.53 37.4344 65.5699 37.4421 65.6122 37.4444C65.7239 37.4526 65.8373 37.4563 65.949 37.4627C66.0139 37.4654 66.0785 37.4704 66.1434 37.4741C66.164 37.4741 66.1852 37.4741 66.2049 37.4741C66.2339 37.4741 66.2613 37.4782 66.2903 37.4796C66.418 37.4846 66.5444 37.486 66.6739 37.4883C66.7452 37.4915 66.8176 37.4947 66.8875 37.496H66.9606C67.1838 37.4992 67.4057 37.4992 67.6257 37.496C67.7175 37.496 67.8021 37.491 67.8893 37.4905C67.9766 37.4901 68.0657 37.4846 68.1512 37.4828C68.2366 37.481 68.3262 37.4764 68.4134 37.4723C68.5009 37.4682 68.5868 37.4631 68.6727 37.4595C68.7097 37.4595 68.7438 37.4531 68.7797 37.4517C68.8715 37.4453 68.9688 37.4375 69.0609 37.4298C69.2373 37.4184 69.4137 37.4078 69.5887 37.3909C69.6906 37.3823 69.7927 37.3676 69.8946 37.3567C70.0049 37.3446 70.1164 37.3318 70.2281 37.3185C70.3136 37.3071 70.4027 37.3007 70.49 37.2888C70.6926 37.2619 70.8914 37.2285 71.0936 37.1974C71.1616 37.1867 71.2345 37.178 71.3026 37.1661L71.3771 37.1543C71.6713 37.104 71.9622 37.0478 72.2498 36.9854C72.2825 36.9786 72.3145 36.9712 72.3472 36.9635C72.4552 36.9402 72.5621 36.9118 72.672 36.8863C72.8557 36.8444 73.0394 36.8038 73.219 36.7567C73.2825 36.7416 73.3421 36.7211 73.4029 36.7039C73.5356 36.6692 73.6652 36.6304 73.7947 36.5934C73.9243 36.5564 74.0437 36.5246 74.1651 36.4871C74.2606 36.4574 74.3542 36.4241 74.4484 36.3928C74.5793 36.3503 74.7102 36.3078 74.8397 36.2616C74.9224 36.2326 75.0079 36.2079 75.0906 36.1787C75.2233 36.133 75.3515 36.0779 75.481 36.0277C75.6105 35.9774 75.7268 35.9363 75.8486 35.8854C75.8945 35.8662 75.9455 35.8493 75.9955 35.8287C76.2299 35.733 76.46 35.6297 76.6896 35.5253L76.7705 35.4906C76.775 35.4896 76.7821 35.4842 76.7821 35.4842C77.0912 35.3423 77.394 35.1908 77.693 35.0334C77.7849 34.9877 77.8712 34.9377 77.9599 34.8892C78.1739 34.7743 78.3839 34.6539 78.5948 34.5315C78.6898 34.4741 78.7871 34.4175 78.8808 34.3594C79.0997 34.2221 79.3151 34.0848 79.528 33.9429C79.5961 33.8972 79.666 33.8536 79.7321 33.8084C80.0078 33.6185 80.276 33.4236 80.5415 33.2208C80.6018 33.1751 80.6596 33.1257 80.7211 33.078C80.9265 32.9174 81.1291 32.7535 81.3265 32.5856C81.4074 32.5162 81.4865 32.4451 81.5692 32.3752C81.6519 32.3053 81.7231 32.2425 81.7988 32.1739C81.9022 32.0782 82.0009 31.9804 82.1031 31.8838C82.1741 31.8166 82.2454 31.7506 82.3151 31.682C82.5527 31.4486 82.786 31.2112 83.0126 30.9654C83.0254 30.953 83.035 30.9384 83.0485 30.9256C83.26 30.6921 83.4659 30.4534 83.6699 30.208C83.6907 30.1797 83.7158 30.1541 83.7393 30.1267C83.7816 30.075 83.8182 30.0209 83.8591 29.9692C84.0094 29.7808 84.1554 29.592 84.2993 29.3985C84.3621 29.3108 84.427 29.2242 84.4917 29.1342C84.647 28.913 84.8008 28.6885 84.9511 28.4586C84.987 28.4033 85.0242 28.3503 85.0599 28.2948C85.2397 28.0106 85.4128 27.7207 85.5792 27.4255C85.6251 27.3481 85.6617 27.2695 85.7039 27.192C85.7848 27.0433 85.8689 26.895 85.9466 26.744C85.9852 26.6663 86.0229 26.5875 86.0596 26.5089C86.1083 26.4082 86.157 26.3076 86.207 26.2069C86.3139 25.9768 86.4174 25.7445 86.5175 25.5101C86.5534 25.4184 86.592 25.3344 86.6297 25.2464C86.7603 24.9252 86.8844 24.5996 87.0018 24.2695C87.0178 24.2199 87.0338 24.1696 87.0505 24.1194C87.1455 23.8338 87.2378 23.5459 87.3237 23.2558C87.3532 23.1484 87.3836 23.0403 87.4115 22.9314C87.4791 22.6839 87.5419 22.4322 87.6036 22.1793C87.6182 22.1105 87.6381 22.0474 87.6523 21.9787C87.6664 21.9101 87.6813 21.8414 87.6982 21.7724C87.7151 21.7034 87.7254 21.6351 87.7386 21.5674C87.7932 21.3038 87.8419 21.0378 87.8874 20.7694L87.8842 20.7703ZM71.1169 1.01926C72.6094 1.47688 73.7506 2.11521 74.7198 2.99777C75.6891 3.88056 76.4077 4.95138 76.9222 6.15516C77.4367 7.35917 77.749 8.70209 77.8835 10.1298C78.0181 11.5575 77.9902 13.0671 77.8271 14.6143C77.8189 14.5081 77.8059 14.4037 77.7885 14.294C77.7712 14.1841 77.7476 14.0824 77.72 13.9737C77.6921 13.8652 77.6587 13.7583 77.6199 13.6534C77.5829 13.5442 77.5395 13.4373 77.4904 13.3331C77.4095 13.1578 77.319 12.9856 77.2235 12.8177C77.1776 13.0132 77.1986 13.2296 77.1468 13.4162C77.1205 13.5079 77.0903 13.5947 77.0622 13.6849C77.009 13.8597 76.9539 14.0349 76.8927 14.2042C76.8582 14.3059 76.8196 14.4014 76.781 14.5008C76.7227 14.6522 76.7122 14.8238 76.5973 14.9502C76.5514 15.0495 76.5096 15.1478 76.4646 15.2431C76.4319 15.3102 76.3892 15.39 76.3585 15.4544C76.3227 15.5282 76.2964 15.588 76.2587 15.6589C76.2317 15.7116 76.2073 15.7688 76.1817 15.8199C76.1605 15.8576 76.1356 15.8928 76.115 15.9298C76.0371 16.068 75.9574 16.2035 75.8756 16.3363C75.8296 16.4167 75.7801 16.4969 75.7314 16.5741C75.6359 16.7201 75.5018 16.899 75.4011 17.039C75.3592 17.098 75.2914 17.2065 75.2459 17.2647C75.1034 17.4532 74.9855 17.4889 74.8324 17.6646L74.7645 17.7521C74.7319 17.7895 74.7088 17.8087 74.6725 17.8457C74.548 17.9867 74.4429 18.0916 74.3101 18.2234C74.2969 18.2375 74.2697 18.2567 74.2551 18.2691C74.2091 18.3148 74.1589 18.3762 74.1107 18.4215C74.0024 18.527 73.8911 18.6182 73.7762 18.7176C73.707 18.7783 73.6412 18.8382 73.5701 18.8978C73.4584 18.9892 73.3403 19.0808 73.2242 19.1692C73.1497 19.2259 73.0748 19.2839 72.999 19.3381C72.9471 19.3755 72.8925 19.4034 72.8393 19.4409C72.773 19.4868 72.7074 19.5439 72.6394 19.5891C72.5635 19.6396 72.4886 19.6872 72.4098 19.7361C72.282 19.8162 72.1571 19.8967 72.0262 19.9714C71.9709 20.0024 71.9112 20.028 71.8543 20.0591C71.8349 20.0721 71.8148 20.084 71.794 20.0947C71.638 20.1891 71.4845 20.2622 71.3227 20.341C71.2702 20.3687 71.2158 20.3929 71.1603 20.4137C70.9531 20.5117 70.7436 20.6065 70.5295 20.6947L70.4982 20.7061C70.4822 20.7125 70.4632 20.7194 70.4477 20.7262C70.3504 20.7653 70.2551 20.7968 70.1596 20.8338C70.0351 20.8795 69.9101 20.9254 69.7842 20.9684C69.7797 20.9707 69.7746 20.9725 69.7696 20.9739L69.7388 20.9839C69.6291 21.0223 69.5174 21.0591 69.4041 21.0947C69.2777 21.1349 69.1482 21.1738 69.0186 21.2108C68.9266 21.2384 68.8324 21.264 68.7374 21.2896C68.6693 21.3079 68.5996 21.3262 68.5315 21.3426C68.5188 21.3463 68.5041 21.3504 68.4856 21.354L68.4548 21.3623C68.3629 21.3853 68.2711 21.4173 68.1765 21.4388C68.1247 21.4502 68.076 21.4639 68.0257 21.474C68.0125 21.4781 68.0001 21.4767 67.9874 21.4799C67.9743 21.4831 67.9684 21.4836 67.9602 21.4854C67.9389 21.4891 67.9206 21.4854 67.9001 21.4914C67.848 21.5019 67.7957 21.5206 67.7438 21.5311C67.6257 21.5546 67.5099 21.5821 67.392 21.6026C67.368 21.6067 67.3488 21.6177 67.323 21.6213C67.277 21.6305 67.227 21.6323 67.1802 21.6401C67.1121 21.6515 67.0452 21.6652 66.9789 21.6744C66.933 21.6808 66.8871 21.6826 66.8411 21.6903C66.8089 21.6942 66.7744 21.6997 66.7404 21.7034C66.7066 21.707 66.6657 21.7093 66.6284 21.713C66.5185 21.7271 66.4093 21.7445 66.3008 21.7559C66.2586 21.76 66.2199 21.7518 66.1772 21.7559C66.1484 21.7591 66.1148 21.7719 66.0854 21.7733C66.0495 21.7774 66.01 21.7801 65.9762 21.7824C65.9017 21.7902 65.8304 21.7948 65.7575 21.7993L65.6113 21.8071C65.5704 21.8103 65.5364 21.8016 65.4994 21.803H65.4877C65.4786 21.8023 65.4694 21.8023 65.4603 21.803C65.41 21.8057 65.3522 21.8254 65.3017 21.8277C65.2513 21.8299 65.2058 21.8277 65.1557 21.8277C65.1055 21.8277 65.0513 21.8331 65.0027 21.8331C64.875 21.8331 64.7468 21.829 64.6186 21.8272C64.546 21.8272 64.4713 21.8245 64.3968 21.8203C64.3673 21.8203 64.339 21.8203 64.3082 21.8203C64.2855 21.8203 64.2622 21.8171 64.2387 21.8171C64.1128 21.8121 63.9897 21.813 63.8654 21.8039C63.8227 21.8039 63.7774 21.797 63.7356 21.7929C63.694 21.7888 63.6659 21.7893 63.6305 21.7861C63.5819 21.7824 63.5327 21.776 63.4859 21.7705C63.3941 21.7628 63.302 21.7454 63.2124 21.7367C63.1334 21.7262 63.0582 21.7166 62.9787 21.7079C62.9547 21.7038 62.9241 21.7052 62.8997 21.7011C62.7847 21.6853 62.67 21.6661 62.556 21.6479C62.5042 21.6387 62.4523 21.6328 62.397 21.625C62.3874 21.6227 62.3792 21.6172 62.3701 21.6159L62.3283 21.6099C62.137 21.5766 61.9565 21.5396 61.7674 21.5005H61.7571L61.748 21.4945C61.5583 21.4548 61.387 21.4182 61.1967 21.37C61.1853 21.37 61.1752 21.3614 61.1638 21.3591C60.9225 21.2978 60.6929 21.2375 60.4549 21.1633C60.4407 21.1596 60.4158 21.1477 60.4016 21.1427L60.254 21.1007C60.1313 21.0618 60.0162 21.0264 59.8949 20.9839C59.8398 20.9657 59.779 20.9451 59.7254 20.9259C59.6867 20.9131 59.6491 20.8969 59.6132 20.8836C59.5673 20.8672 59.5213 20.8503 59.4754 20.8334C59.3068 20.7726 59.1409 20.7084 58.9748 20.6412C58.926 20.623 58.88 20.6047 58.8346 20.5855C58.809 20.5761 58.7809 20.5629 58.7578 20.5542C58.3164 20.3712 57.8851 20.1768 57.4482 19.9622C57.4192 19.9483 57.3886 19.9373 57.3614 19.9213C57.3436 19.9127 57.3201 19.898 57.3009 19.8889C57.252 19.8642 57.2061 19.8432 57.156 19.8172C56.9925 19.7342 56.8419 19.6579 56.6801 19.57C56.6411 19.5494 56.5956 19.5243 56.557 19.5042C56.5184 19.4841 56.4716 19.455 56.4297 19.4326C56.2728 19.3454 56.1252 19.2634 55.9705 19.1733C55.9184 19.1457 55.8611 19.1087 55.8124 19.079C55.7898 19.0648 55.7448 19.0401 55.7206 19.0274C55.4935 18.8955 55.2865 18.7683 55.0617 18.6287L53.9721 17.9447C53.9849 17.9524 53.998 17.9611 54.0121 17.9689C54.205 18.0893 54.3994 18.2053 54.5917 18.3189L54.7926 18.4338C54.9363 18.5165 55.082 18.599 55.2276 18.6776C55.3025 18.7194 55.377 18.7605 55.4508 18.7989C55.5984 18.8791 55.7453 18.9554 55.8915 19.0305C55.9575 19.0639 56.0224 19.0986 56.0889 19.1311C56.3007 19.2369 56.5161 19.3385 56.7279 19.4358L56.7361 19.439C56.9452 19.5348 57.1583 19.6252 57.3674 19.7137C57.44 19.7434 57.5111 19.7717 57.5824 19.8002C57.7318 19.8597 57.8819 19.9163 58.0313 19.9718C58.1069 19.9992 58.1814 20.0257 58.2577 20.0518C58.4227 20.11 58.5874 20.164 58.7528 20.2156C58.8094 20.2339 58.8645 20.2531 58.9209 20.2702C59.1441 20.3383 59.3644 20.3991 59.5881 20.4559C59.7676 20.5016 59.9472 20.5437 60.1281 20.5834H60.1334C60.1396 20.5855 60.146 20.5866 60.1526 20.5873C60.3303 20.6266 60.5099 20.66 60.6881 20.691C60.7512 20.7011 60.8145 20.7089 60.8793 20.7203C61.002 20.7399 61.127 20.758 61.2515 20.7763C61.3258 20.7836 61.4007 20.7918 61.4765 20.8005C61.6011 20.8149 61.7258 20.8277 61.8505 20.8393L61.9538 20.8471C62.127 20.8599 62.3002 20.8704 62.4733 20.8768C62.5042 20.8768 62.533 20.8768 62.5606 20.8768C62.7443 20.8823 62.9282 20.8845 63.116 20.8823C63.3861 20.8786 63.6582 20.8654 63.9332 20.8448C63.9792 20.8411 64.0251 20.8384 64.0673 20.8329C64.3328 20.811 64.5972 20.7813 64.8622 20.7413C64.9449 20.7294 65.0271 20.7166 65.1096 20.7038C65.1777 20.6924 65.2476 20.6819 65.3123 20.6691C65.4203 20.6499 65.5304 20.6294 65.6421 20.6074C65.7018 20.5928 65.7653 20.5811 65.83 20.5684L65.8994 20.5528C66.0372 20.5222 66.1777 20.4898 66.3189 20.4537C66.3307 20.4514 66.3426 20.4484 66.3543 20.4445C66.5048 20.4073 66.6554 20.3668 66.8057 20.3232C67.0276 20.2586 67.2462 20.1886 67.4612 20.1169C67.4728 20.1121 67.4845 20.1082 67.4966 20.1048C67.7075 20.0317 67.9142 19.9526 68.1201 19.8702C68.1347 19.8647 68.1493 19.8583 68.166 19.8537C68.3732 19.768 68.5756 19.6789 68.776 19.5832C68.8247 19.5617 68.8715 19.5375 68.917 19.5124C69.0655 19.4404 69.2147 19.3655 69.3591 19.2862C69.4283 19.2492 69.4968 19.2076 69.5624 19.1692C69.6837 19.0991 69.8036 19.0319 69.9204 18.9558C69.9946 18.9101 70.0678 18.8622 70.139 18.814C70.2487 18.7418 70.3558 18.6666 70.4641 18.5898C70.5354 18.5391 70.6049 18.4859 70.6746 18.4343C70.7813 18.3531 70.885 18.2704 70.9885 18.1852C75.0051 14.8805 75.0814 8.60659 67.9106 9.38771C67.3337 9.46494 66.7619 9.57597 66.198 9.72036C65.6065 9.87115 65.0246 10.0567 64.455 10.2758C63.8578 10.507 63.2741 10.772 62.7073 11.0692C60.9463 11.9817 59.2762 13.0795 57.6783 14.3182C56.0807 15.557 54.5634 16.931 53.1049 18.4032C51.6464 19.8752 50.252 21.4379 48.9039 23.0504C47.5555 24.6629 46.256 26.3254 44.9891 27.9923L44.9487 27.182C43.354 29.1365 41.6871 31.0259 39.8863 32.7647C35.1763 37.3043 26.942 43.1341 18.075 42.0628C18.038 42.0491 18.0021 42.0331 17.9649 42.0171C17.9276 42.0011 17.8813 42.0171 17.8454 42.0025C17.8095 41.9879 17.7839 41.9824 17.7485 41.9673C17.7131 41.9522 17.6708 41.9504 17.635 41.9349C17.589 41.9136 17.5317 41.889 17.4867 41.8675C17.3487 41.8067 17.2281 41.7471 17.0953 41.6804C17.0222 41.6438 16.9226 41.581 16.8495 41.5431C16.8104 41.5211 16.7622 41.4974 16.7232 41.4786C16.5936 41.4062 16.4936 41.3231 16.3677 41.2465C16.29 41.2008 16.2297 41.1248 16.1541 41.0777C16.1214 41.0562 16.0474 41.0777 16.0161 41.0567C15.8915 40.9733 15.7332 40.8737 15.6087 40.7862C15.531 40.7322 15.4924 40.6907 15.4147 40.6315C15.3887 40.6128 15.3757 40.6118 15.3501 40.5926C15.3243 40.5735 15.2091 40.5666 15.2301 40.5088C15.1346 40.4357 15.067 40.3548 14.9747 40.2769C14.8989 40.2134 14.826 40.1666 14.752 40.0999C14.7243 40.0756 14.7001 40.0468 14.6711 40.0224C14.6421 39.9982 14.6252 39.9708 14.5966 39.9452C14.5397 39.8931 14.4625 39.8316 14.4088 39.7777C14.3003 39.6715 14.2457 39.6345 14.1406 39.5232C14.1294 39.5104 14.1034 39.483 14.0947 39.472L14.062 39.414C13.6944 39.0606 13.354 38.6002 13.0239 38.1785C12.1207 37.0345 11.4004 35.6484 11.1205 34.0142C10.8409 32.3802 11.004 30.5 11.8781 28.3805C11.8859 28.4682 11.8617 28.5329 11.8781 28.6206C11.8863 28.5991 11.9217 28.5507 11.93 28.5292C11.9912 28.3682 11.9699 28.2825 12.0367 28.1264C12.0412 28.1132 12.0108 28.0351 12.0172 28.0236C12.0417 27.9686 12.1335 27.9439 12.1593 27.8863C12.2386 27.7111 12.3126 27.566 12.3985 27.3967C12.4113 27.37 12.3848 27.1906 12.4602 27.2361C12.4863 27.1865 12.5153 27.1303 12.5409 27.0814C12.6186 26.9382 12.7298 26.768 12.8125 26.6302C12.8584 26.5551 12.9226 26.4769 12.9708 26.4045C13.0629 26.264 13.123 26.1667 13.2167 26.0312C13.2585 25.9718 13.3085 25.9126 13.3544 25.8541C13.3725 25.8322 13.4157 25.7954 13.4321 25.7735C13.6789 25.4363 13.9489 25.1166 14.2402 24.8167C14.2535 24.8025 14.3051 24.7829 14.3179 24.7687C14.3583 24.7285 14.407 24.6912 14.4474 24.6524C14.5589 24.5441 14.651 24.4388 14.7689 24.3321C14.8338 24.2759 14.916 24.203 14.982 24.1491C15.0341 24.1066 15.1047 24.0337 15.1566 23.9912C15.2215 23.9382 15.2946 23.869 15.3606 23.8174C15.4269 23.7657 15.5077 23.696 15.5738 23.6467C15.7147 23.5459 15.8719 23.3332 15.9978 23.3506C16.046 23.3182 16.1038 23.293 16.1527 23.259C16.3469 23.1356 16.5036 23.0138 16.7037 22.9017C16.7122 22.8976 16.7572 22.9359 16.7654 22.9305C16.8059 22.9099 16.8283 22.8692 16.8687 22.8468C16.99 22.7813 17.1063 22.7461 17.2308 22.6826C17.2685 22.6647 17.3149 22.6197 17.3505 22.6019C17.42 22.5672 17.4977 22.5261 17.5708 22.4927C17.7126 22.4267 17.8609 22.3842 18.0071 22.3218C18.0862 22.2898 18.1748 22.2565 18.253 22.2254C18.4067 22.1651 18.5534 22.0927 18.7085 22.0388C18.7816 22.0127 18.8543 22.0214 18.9253 21.9965C19.1517 21.9206 19.3535 21.9133 19.5851 21.8478C19.8166 21.7824 20.0508 21.7175 20.2811 21.662C20.5111 21.6067 20.7403 21.5524 20.9655 21.5055C21.1906 21.4589 21.417 21.4178 21.6402 21.3808C21.8636 21.3435 22.0836 21.3134 22.3037 21.2864L24.0336 21.0751C23.8316 21.0988 23.6276 21.1285 23.4222 21.1619C23.2168 21.1953 23.0124 21.2348 22.804 21.2773C22.5954 21.3198 22.3864 21.3687 22.1727 21.4196C21.9591 21.4703 21.7501 21.5288 21.5351 21.5894C21.3201 21.6497 21.1111 21.7189 20.9039 21.7897C20.8392 21.8112 20.7743 21.8354 20.7097 21.8594C20.5671 21.9097 20.4248 21.9636 20.287 22.0182C20.2111 22.0483 20.138 22.0776 20.0656 22.1096C19.9342 22.1651 19.8015 22.2231 19.6756 22.2821C19.6043 22.315 19.5344 22.3472 19.4666 22.3805C19.3226 22.4504 19.1771 22.5256 19.038 22.5996C18.9921 22.6271 18.9406 22.6506 18.8936 22.678C18.7099 22.7808 18.5262 22.8893 18.3503 23.0029C18.3044 23.0312 18.2626 23.0632 18.2176 23.092C18.0862 23.1799 17.9535 23.27 17.8271 23.3666C17.7641 23.4123 17.7044 23.4582 17.6459 23.5039C17.5344 23.588 17.4273 23.6755 17.319 23.7634C17.2591 23.8137 17.1995 23.8653 17.1394 23.9172C17.0341 24.0122 16.9276 24.1102 16.8237 24.2099C16.7737 24.259 16.7218 24.307 16.6731 24.3568C16.526 24.5069 16.3805 24.6606 16.2395 24.8217C16.2363 24.8258 16.2347 24.8299 16.2297 24.8331C12.0867 30.2002 15.6377 35.1074 23.2799 33.3083C23.8508 33.1598 24.4128 32.9788 24.963 32.7661C25.5447 32.5418 26.1135 32.2859 26.6669 31.9992C28.4178 31.0931 30.0831 29.9994 31.6694 28.7689C33.2556 27.5384 34.7722 26.1607 36.2236 24.6965C37.6753 23.232 39.0687 21.6634 40.4168 20.0472C41.765 18.4311 43.0661 16.7639 44.3366 15.0911L44.3757 15.9074C45.9759 13.9397 47.6512 12.0379 49.462 10.2863C51.2728 8.53463 53.2228 6.93217 55.3676 5.57052C57.5675 4.1618 59.9488 3.05603 62.4462 2.28359C64.9549 1.51297 67.7038 1.04165 70.7436 0.961914H70.7714L70.7959 0.969684C70.88 0.966485 71.0332 1.02017 71.1169 1.01926ZM27.2065 6.239C26.7615 6.11632 26.3098 6.01008 25.8487 5.9187C25.3875 5.82708 24.9148 5.7494 24.4325 5.68749C23.95 5.6258 23.4636 5.58103 22.9582 5.55201C22.4528 5.52322 21.9454 5.51226 21.4206 5.51865C20.8961 5.52505 20.3688 5.54881 19.8248 5.58971C19.2808 5.63038 18.7222 5.69297 18.1582 5.77271C17.5941 5.85221 17.0099 5.94977 16.4182 6.06834C15.8264 6.18669 15.2237 6.32674 14.6039 6.48643C14.2934 6.56526 13.9857 6.65435 13.6816 6.75145C13.5847 6.78207 13.4892 6.81588 13.3935 6.8481C13.1849 6.91801 12.9761 6.9886 12.7689 7.06491C12.6572 7.1074 12.547 7.15195 12.4358 7.19399C12.2462 7.26984 12.0536 7.34912 11.8658 7.43045C11.754 7.47912 11.641 7.52846 11.5276 7.57873C11.3382 7.66532 11.1523 7.7567 10.9658 7.84877C10.8932 7.88487 10.8201 7.91548 10.7477 7.95227C10.7168 7.96872 10.686 7.98928 10.6519 8.00618C10.4401 8.11562 10.2331 8.23214 10.0241 8.35071C9.95145 8.39321 9.87378 8.43227 9.80227 8.47477C9.5224 8.63995 9.24732 8.81016 8.97522 8.9895C8.91422 9.02971 8.85596 9.0738 8.79428 9.11493C8.6211 9.23259 8.44655 9.35093 8.27337 9.47499C8.2407 9.49966 8.20849 9.52685 8.17605 9.55153C8.08421 9.61961 7.99213 9.69249 7.90029 9.76331C7.73031 9.89171 7.56307 10.0238 7.39881 10.1592C7.35654 10.1958 7.30948 10.2292 7.26585 10.2652C7.21261 10.3112 7.16212 10.3569 7.11026 10.4026C6.95353 10.5399 6.79658 10.6772 6.64259 10.8168C6.53978 10.8871 6.4589 10.9874 6.36706 11.0733C6.20805 11.2257 6.03898 11.3662 5.88545 11.5259C5.80732 11.6066 5.72005 11.6884 5.64397 11.7708C5.44178 11.9854 5.25991 12.2042 5.06732 12.4302C5.0431 12.4599 5.01363 12.4878 4.98736 12.5161C4.77237 12.7733 4.56767 13.0352 4.36365 13.305C4.35085 13.3217 4.34514 13.3536 4.33097 13.3705C4.28505 13.4359 4.22406 13.4919 4.17699 13.5563C4.03923 13.7484 3.90786 13.9374 3.77695 14.1361C3.70589 14.2403 3.63141 14.3493 3.56379 14.4564C3.49639 14.5634 3.43745 14.6874 3.36959 14.7969C3.32367 14.8755 3.26702 14.9387 3.21973 15.0192C3.1537 15.1322 3.08973 15.2481 3.02507 15.3657C2.91792 15.5592 2.80734 15.7482 2.70339 15.9467C2.64559 16.0603 2.58756 16.1921 2.53112 16.3086C2.421 16.5316 2.31523 16.7379 2.21333 16.9677C2.17792 17.045 2.14708 17.137 2.11304 17.2156C2.10207 17.2412 2.08927 17.2659 2.07488 17.2899C2.04107 17.3762 2.01434 17.4519 1.9771 17.5368C1.91747 17.6865 1.8535 17.8338 1.79706 17.9835C1.77924 18.0292 1.75983 18.081 1.74201 18.1272C1.70157 18.2357 1.65839 18.349 1.62252 18.4589C1.58666 18.5688 1.55581 18.6684 1.52017 18.7792C1.49436 18.8558 1.46443 18.9412 1.44021 19.0187C1.4048 19.1334 1.37624 19.2524 1.3422 19.3687C1.31981 19.4459 1.29171 19.5279 1.26886 19.6079C1.23665 19.7201 1.20352 19.8295 1.17702 19.9428C1.15029 20.0564 1.11761 20.1754 1.09203 20.2917C1.07855 20.3433 1.07215 20.3885 1.05935 20.44C1.00429 20.676 0.967512 20.9209 0.921591 21.1637C0.921591 21.1637 0.921591 21.1715 0.921591 21.1765V21.1806C0.875669 21.4283 0.819007 21.6712 0.778112 21.9225C0.768516 21.9782 0.764402 22.0401 0.754807 22.0954C0.749781 22.1333 0.734477 22.1644 0.729907 22.2021C0.721683 22.2556 0.721227 22.3118 0.71483 22.3664C0.69998 22.4742 0.68901 22.5608 0.67576 22.6711C0.659767 22.8039 0.642177 22.9428 0.627555 23.0755C0.619788 23.1607 0.609509 23.254 0.601741 23.341C0.598085 23.3821 0.589398 23.4326 0.58757 23.4751C0.563124 23.7344 0.546678 23.993 0.533884 24.259C0.533884 24.2745 0.530685 24.3047 0.530685 24.3202C0.530685 24.3789 0.530687 24.4283 0.52726 24.4854C0.520863 24.6803 0.498929 24.8482 0.497559 25.046C0.497559 25.1287 0.497559 25.2222 0.497559 25.3058C0.497559 25.4043 0.497559 25.5082 0.497559 25.6065C0.497559 25.6981 0.503956 25.8075 0.507154 25.9007C0.507154 26.0892 0.523607 26.2839 0.533431 26.4751C0.533431 26.5404 0.533424 26.6037 0.538451 26.6695C0.538451 26.6914 0.540734 26.7152 0.540734 26.7349C0.558554 27.0447 0.556734 27.3234 0.586663 27.64C0.586663 27.6615 0.612707 27.7115 0.614535 27.7317C0.622531 27.8139 0.57524 27.9407 0.586663 28.0245C0.605854 28.2363 0.579804 28.5233 0.65771 28.6688C0.667077 28.7374 0.681697 28.8518 0.689922 28.9199C0.707971 29.044 0.749781 29.1488 0.767601 29.274C0.785421 29.3995 0.837061 29.4678 0.859451 29.5975C0.882069 29.7275 0.887089 29.8822 0.911307 30.0072C0.935753 30.1321 0.957233 30.2662 0.982136 30.3953C0.996758 30.4703 1.01617 30.5379 1.03262 30.6144C1.0493 30.6907 1.05844 30.7444 1.07306 30.8157C1.08768 30.8872 1.11167 30.9686 1.12629 31.041C1.14115 31.1132 1.16125 31.173 1.1793 31.2455C1.19712 31.3176 1.2122 31.3942 1.23299 31.4636L4.44864 29.7399C4.37233 29.4022 4.30425 29.0686 4.23959 28.7355C4.21835 28.617 4.19755 28.4991 4.17653 28.3823C4.13632 28.1461 4.09726 27.9105 4.06322 27.6775C4.04699 27.561 4.0278 27.4447 4.01455 27.3298C3.97777 27.068 3.9483 26.8087 3.92271 26.5519C3.91288 26.476 3.90146 26.3995 3.89506 26.3232C3.86422 25.9887 3.84183 25.6597 3.82561 25.3344C3.82561 25.2724 3.82561 25.2131 3.81921 25.1511C3.80779 24.8914 3.80276 24.6346 3.80139 24.3808C3.80139 24.2891 3.80139 24.1975 3.80139 24.1029C3.80413 23.8443 3.80917 23.5861 3.81876 23.3309C3.82196 23.2807 3.82196 23.2302 3.82516 23.1813C3.83818 22.8793 3.86103 22.5818 3.89004 22.2876C3.89644 22.2103 3.90466 22.1329 3.91289 22.0557C3.93687 21.8304 3.96109 21.6076 3.99376 21.3867C4.00473 21.3042 4.01638 21.2202 4.02781 21.1372C4.07373 20.8521 4.11965 20.5693 4.17151 20.2908C4.17471 20.2807 4.17654 20.2702 4.17996 20.2595C4.23137 19.9951 4.29145 19.7365 4.35314 19.479C4.37873 19.37 4.40774 19.2643 4.43721 19.1585C4.48313 18.9814 4.52905 18.8057 4.58137 18.6319C4.61359 18.5243 4.64626 18.4173 4.67962 18.3116C4.73148 18.14 4.78997 17.9707 4.84822 17.8014C4.88364 17.6979 4.91768 17.5988 4.95492 17.4966C5.01957 17.3187 5.08948 17.143 5.1619 16.9664C5.19595 16.8834 5.22679 16.7971 5.26403 16.7141C5.30127 16.6314 5.34171 16.5426 5.37735 16.4573C5.47307 16.241 5.56994 16.0274 5.67321 15.8167C5.7253 15.7107 5.77899 15.6086 5.83222 15.5042C5.92772 15.3212 6.02482 15.1382 6.12672 14.9584C6.18635 14.8522 6.24483 14.7493 6.30766 14.6449C6.41161 14.469 6.51785 14.2954 6.62705 14.1243C6.68851 14.029 6.75134 13.9305 6.8144 13.835C6.93754 13.652 7.06525 13.4713 7.19479 13.2904C7.24802 13.2168 7.29988 13.1407 7.357 13.0685C7.54069 12.8195 7.7326 12.5769 7.93296 12.3399C7.95741 12.3121 7.97888 12.2888 8.00242 12.2614C8.17879 12.0537 8.36019 11.8494 8.54616 11.6523C8.61607 11.5773 8.6901 11.5049 8.76298 11.4304C8.90097 11.2844 9.04604 11.1407 9.19203 11.0002C9.27611 10.92 9.36202 10.8424 9.44609 10.764C9.58865 10.6333 9.73236 10.5074 9.87652 10.382C9.96379 10.3071 10.0511 10.231 10.1402 10.1588C10.2923 10.0334 10.4481 9.91067 10.6033 9.79256C10.6873 9.72813 10.7714 9.66256 10.8573 9.5995C11.041 9.45991 11.2359 9.32808 11.4269 9.19649C11.4822 9.15879 11.5354 9.11904 11.5918 9.08431C11.8413 8.91913 12.0935 8.76035 12.3513 8.61025C12.4175 8.56958 12.4867 8.53417 12.5548 8.49533C12.7458 8.38589 12.9384 8.27851 13.1326 8.17776C13.2281 8.12887 13.3238 8.08112 13.4207 8.03315C13.5925 7.94816 13.7657 7.86568 13.9389 7.78663C14.0421 7.74071 14.1461 7.69501 14.2525 7.64932C14.4225 7.57553 14.5957 7.5047 14.7702 7.43594C14.8742 7.39481 14.9779 7.35369 15.0814 7.31348C15.2706 7.24517 15.4584 7.17937 15.6492 7.11609C15.741 7.0873 15.8287 7.05394 15.9197 7.0247C16.1995 6.9372 16.4828 6.85449 16.7659 6.78207C17.3355 6.63471 17.8908 6.50768 18.4362 6.3987C18.9813 6.28972 19.5125 6.19834 20.0339 6.12409C20.5552 6.05007 21.0661 5.99638 21.5664 5.95617C22.0665 5.91596 22.5568 5.89676 23.0363 5.89037C23.5159 5.88397 23.9895 5.89676 24.4489 5.92235C24.9084 5.94794 25.3635 5.98998 25.8056 6.04687C26.2474 6.10353 26.6806 6.17252 27.1065 6.2582C27.5323 6.34364 27.9479 6.4412 28.3559 6.55246L27.2065 6.239Z" fill="url(#paint0_linear_105_101)"/>
<path fill-rule="evenodd" clip-rule="evenodd" d="M21.802 8.52766C22.8399 8.51555 23.8771 8.58295 24.9045 8.7294C25.9384 8.87676 26.9585 9.10636 27.9555 9.41593C30.0007 10.0506 31.9219 11.0289 33.636 12.3088C36.4695 14.4246 38.9447 16.9615 41.2841 19.5964C43.6239 22.2312 45.8192 24.9603 48.1027 27.4725C50.3862 29.9847 52.7538 32.2684 55.4293 34.0187C58.1047 35.769 61.0839 36.9826 64.5956 37.3445C64.8496 37.3714 65.1026 37.394 65.3546 37.4128C65.6059 37.431 65.8549 37.4461 66.1058 37.4585C66.3564 37.4708 66.604 37.4781 66.8503 37.4818C67.0966 37.4854 67.3456 37.4854 67.5881 37.4818C70.9024 37.4361 74.0006 36.7349 76.7337 35.4751C79.4671 34.2154 81.8411 32.3938 83.7045 30.1112C85.5676 27.8289 86.9201 25.0779 87.616 21.9639C88.3119 18.85 88.3455 15.3599 87.5701 11.603C88.8714 15.431 89.2486 19.2505 88.8472 22.8406C88.446 26.4231 87.2692 29.7772 85.4648 32.679C83.6604 35.5805 81.2343 38.0278 78.3209 39.805C75.4075 41.5823 72.0127 42.6905 68.2744 42.9083C68.1642 42.9147 68.0557 42.9197 67.9454 42.9252C67.8352 42.9307 67.7304 42.9355 67.6207 42.94C67.5108 42.9446 67.4066 42.9464 67.299 42.9487C67.1917 42.951 67.085 42.9528 66.9776 42.9533C64.576 42.9935 62.18 42.7049 59.8572 42.0956C57.6615 41.5187 55.6309 40.6771 53.7236 39.6604C51.8164 38.6435 50.0339 37.4489 48.3328 36.1663C46.6318 34.8837 45.0134 33.509 43.439 32.1357C41.8649 30.7626 40.3282 29.3806 38.7994 28.0884C37.2707 26.7962 35.7372 25.5895 34.1706 24.5566C32.6043 23.5239 31.0011 22.6676 29.3169 22.0743C27.6329 21.4807 25.8716 21.1499 23.9941 21.1718C23.6432 21.1771 23.2888 21.1938 22.9311 21.2221C22.5735 21.2504 22.2105 21.2932 21.842 21.3498C21.4746 21.4037 21.1024 21.4739 20.7252 21.5561C20.348 21.6386 19.9676 21.7371 19.5795 21.8481C18.59 22.1261 17.6355 22.5164 16.7351 23.011C15.8553 23.4956 15.0474 24.0999 14.3348 24.8065C13.6028 25.5378 12.9864 26.3758 12.5076 27.2917C11.2501 29.6835 11.0091 32.0708 11.6346 34.7162C11.9088 35.8912 12.3865 37.0097 13.0463 38.0212C13.6572 38.9526 14.4175 39.7776 15.2974 40.463C16.142 41.1242 17.078 41.6611 18.076 42.0572C17.3101 42.0001 16.6014 41.9387 15.9297 41.8532C15.2834 41.7748 14.6417 41.662 14.0072 41.5151C13.3837 41.3712 12.7714 41.1818 12.1758 40.9485C11.5332 40.6947 10.9095 40.3956 10.3097 40.0529C8.38971 38.9686 6.71506 37.5009 5.39156 35.7415C4.06783 33.9821 3.12335 31.9691 2.61753 29.8291C2.11879 27.7297 2.05711 25.5508 2.43659 23.4268C2.83389 21.213 3.70708 19.1109 4.99677 17.2649C5.94467 15.903 7.06232 14.6663 8.32254 13.5845C9.56539 12.5171 10.9318 11.6014 12.3927 10.8569C13.8457 10.1137 15.3798 9.53953 16.9647 9.14589C18.5477 8.75316 20.171 8.54708 21.802 8.52766ZM21.197 0.00225086C17.3273 0.0452023 13.8471 1.05845 10.8781 2.80095C7.90901 4.54346 5.45736 7.01065 3.63558 9.96083C1.81356 12.911 0.632626 16.3377 0.191688 20.0069C-0.248565 23.6676 0.0587178 27.568 1.22572 31.464C0.455334 28.1026 0.340416 25.0078 0.745029 22.2207C1.14987 19.4335 2.07218 16.9459 3.37512 14.8109C5.89075 10.6896 9.92043 7.70793 14.6081 6.49958C15.2249 6.33942 15.8297 6.20006 16.4223 6.08148C17.015 5.96268 17.5943 5.86421 18.1605 5.78585C18.7289 5.70703 19.2836 5.64535 19.8276 5.60285C20.3716 5.56013 20.9039 5.53728 21.4248 5.5318C22.4342 5.51832 23.4433 5.57475 24.4449 5.70063C26.2879 5.93367 28.0891 6.4235 29.7955 7.15573C30.616 7.50779 31.4135 7.90966 32.1844 8.35928C34.3628 9.62955 36.3326 11.253 38.1967 13.0762C40.0609 14.8991 41.8217 16.9199 43.583 18.9832C45.3442 21.0464 47.1027 23.1526 48.9718 25.1515C50.8411 27.1503 52.8141 29.0375 55.0071 30.665C55.8595 31.3011 56.7666 31.8615 57.7174 32.3395C58.6457 32.8076 59.6119 33.1967 60.6059 33.5026C61.5883 33.8051 62.5936 34.0287 63.6116 34.1715C64.6249 34.3123 65.6475 34.3762 66.6703 34.3623C68.2798 34.3399 69.8816 34.132 71.4432 33.7427C73.0116 33.3545 74.5304 32.7895 75.9702 32.0589C77.4203 31.3228 78.779 30.421 80.0193 29.3715C81.2795 28.3038 82.402 27.0848 83.3613 25.7423C84.9185 23.5723 85.8973 21.0441 86.2057 18.3944C86.5143 15.7449 86.1424 13.0606 85.1253 10.5932C84.4591 8.96997 83.524 7.46964 82.3592 6.15459C81.6277 5.32801 80.8077 4.58344 79.9135 3.93437C79.0451 3.30495 78.1109 2.77125 77.1269 2.34242C76.1402 1.91359 75.1128 1.58392 74.0602 1.35865C72.9782 1.12744 71.8775 0.994021 70.7715 0.95998C71.6581 1.23094 72.5503 1.70729 73.3803 2.36435C74.256 3.06528 75.0081 3.90695 75.6056 4.85462C76.2743 5.91516 76.7596 7.07988 77.041 8.30034C77.6723 11.0033 77.415 13.3709 76.1091 15.7979C75.6184 16.7101 74.9942 17.5445 74.2574 18.274C73.5419 18.9761 72.7326 19.5765 71.8526 20.0585C70.9545 20.5493 70.0038 20.9377 69.0187 21.2162C68.6726 21.3158 68.3294 21.4026 67.9897 21.4771C67.6497 21.5516 67.3127 21.6135 66.979 21.6628C66.644 21.7122 66.3137 21.7521 65.9854 21.7768C65.6568 21.8015 65.3313 21.8193 65.0091 21.8225C61.8147 21.8623 58.8755 20.831 56.0192 19.1954C53.1627 17.56 50.383 15.3197 47.5249 12.9439C44.6666 10.5681 41.7164 8.05543 38.5234 5.88683C35.3301 3.71847 31.8798 1.88572 28.0247 0.877729C27.4275 0.722601 26.8387 0.588493 26.2575 0.47586C25.6763 0.363226 25.0972 0.270011 24.5276 0.198501C23.9578 0.12722 23.396 0.073761 22.8411 0.0410904C22.2861 0.00864834 21.7373 -0.00597389 21.197 0.00225086Z" fill="url(#paint1_radial_105_101)"/>
<path d="M0 52.2982H4.1172V60.3931L8.669 52.2982H12.8332L8.1288 59.4329L13.2317 71.7003H8.9759L5.6791 62.7674L4.12109 65.1041V71.7003H0V52.2982Z" fill="#414042"/>
<path d="M14.5557 52.2982H25.9487V55.6249H18.6737V60.1309H24.3287V63.4576H18.6737V68.2312H25.9487V71.6996H14.5557V52.2982Z" fill="#414042"/>
<path d="M27.6867 52.2982H31.8047V68.063H37.8437V71.7019H27.6867V52.2982Z" fill="#414042"/>
<path d="M39.3747 52.2982H43.4927V68.063H49.5307V71.7019H39.3747V52.2982Z" fill="#414042"/>
<path d="M48.3447 52.2982H60.0257V55.9379H56.1957V71.7019H52.0777V55.9379H48.3447V52.2982Z" fill="#414042"/>
<path d="M74.3767 61.9933C74.3767 68.6655 72.1117 72.001 67.5817 72C65.3317 72 63.6337 71.1496 62.4897 69.4488C61.3447 67.7481 60.7727 65.2629 60.7737 61.9933C60.7737 55.3311 63.0387 52 67.5677 52C69.7827 52 71.4717 52.8347 72.6337 54.5042C73.7947 56.1737 74.3767 58.6701 74.3767 61.9933ZM70.0387 61.9933C70.0387 59.377 69.8427 57.6355 69.4487 56.7689C69.0557 55.9024 68.4297 55.4688 67.5707 55.4683C66.7197 55.4683 66.0977 55.9042 65.7037 56.776C65.3097 57.6478 65.1117 59.3869 65.1097 61.9933C65.1097 64.5497 65.3037 66.2792 65.6927 67.1818C66.0817 68.0843 66.7057 68.5343 67.5667 68.5317C68.4177 68.5317 69.0427 68.1007 69.4407 67.2389C69.8387 66.377 70.0387 64.6285 70.0417 61.9933H70.0387Z" fill="#414042"/>
<path d="M76.8138 52.2982H81.3848L86.2027 64.3497V52.2982H89.3867V71.7058H85.7068L79.9978 57.6611V71.7058H76.8127L76.8138 52.2982Z" fill="#414042"/>
<defs>
<linearGradient id="paint0_linear_105_101" x1="16.4714" y1="21.5757" x2="78.5153" y2="21.5757" gradientUnits="userSpaceOnUse">
<stop stop-color="#09304D"/>
<stop offset="0.45" stop-color="#0572B6"/>
<stop offset="1" stop-color="#09304D"/>
</linearGradient>
<radialGradient id="paint1_radial_105_101" cx="0" cy="0" r="1" gradientUnits="userSpaceOnUse" gradientTransform="translate(45.3897 21.9091) scale(45.911 45.7326)">
<stop stop-color="#71CBDC"/>
<stop offset="0.15" stop-color="#6EC6D9"/>
<stop offset="0.32" stop-color="#66B7D1"/>
<stop offset="0.51" stop-color="#599FC4"/>
<stop offset="0.71" stop-color="#467EB1"/>
<stop offset="0.92" stop-color="#2E5399"/>
<stop offset="1" stop-color="#24408F"/>
</radialGradient>
</defs>
</svg>
