<?xml version="1.0" encoding="UTF-8"?>
<!DOCTYPE svg PUBLIC "-//W3C//DTD SVG 1.1//EN" "http://www.w3.org/Graphics/SVG/1.1/DTD/svg11.dtd">
<svg xmlns="http://www.w3.org/2000/svg" version="1.1" width="512px" height="512px" style="shape-rendering:geometricPrecision; text-rendering:geometricPrecision; image-rendering:optimizeQuality; fill-rule:evenodd; clip-rule:evenodd" xmlns:xlink="http://www.w3.org/1999/xlink">
<g><path style="opacity:0.983" fill="#00b6d9" d="M 232.5,-0.5 C 247.833,-0.5 263.167,-0.5 278.5,-0.5C 326.972,4.60074 370.806,21.6007 410,50.5C 410.333,41.5 410.667,32.5 411,23.5C 416.134,13.2568 423.968,10.4235 434.5,15C 437.869,17.3649 440.036,20.5315 441,24.5C 441.968,46.897 441.634,69.2304 440,91.5C 438.373,96.0622 435.206,98.8955 430.5,100C 411.833,103.333 393.167,106.667 374.5,110C 356.987,111.15 350.821,103.317 356,86.5C 357.873,84.2911 360.04,82.4578 362.5,81C 371.852,78.9977 381.186,76.9977 390.5,75C 323.772,27.8487 251.772,17.8487 174.5,45C 96.692,77.7524 49.5253,135.586 33,218.5C 21.4315,317.508 56.9315,394.341 139.5,449C 213.816,490.193 288.816,491.526 364.5,453C 439.106,408.668 477.939,342.835 481,255.5C 483.377,241.887 491.21,237.387 504.5,242C 507.412,244.015 509.745,246.515 511.5,249.5C 511.5,259.167 511.5,268.833 511.5,278.5C 500.612,368.144 456.279,435.644 378.5,481C 347.029,497.695 313.696,507.861 278.5,511.5C 263.167,511.5 247.833,511.5 232.5,511.5C 142.856,500.612 75.3562,456.279 30,378.5C 13.3053,347.029 3.1386,313.696 -0.5,278.5C -0.5,263.167 -0.5,247.833 -0.5,232.5C 10.3875,142.857 54.7208,75.3573 132.5,30C 163.971,13.3053 197.304,3.1386 232.5,-0.5 Z M 180.5,240.5 C 230.5,240.5 280.5,240.5 330.5,240.5C 330.5,277.167 330.5,313.833 330.5,350.5C 280.5,350.5 230.5,350.5 180.5,350.5C 180.5,313.833 180.5,277.167 180.5,240.5 Z"/></g>
<g><path style="opacity:0.996" fill="#00b5d9" d="M 242.5,90.5 C 283.063,87.0202 312.23,103.354 330,139.5C 332.277,145.332 333.944,151.332 335,157.5C 335.5,175.164 335.667,192.83 335.5,210.5C 340.844,210.334 346.177,210.501 351.5,211C 355.667,212.5 358.5,215.333 360,219.5C 360.667,270.167 360.667,320.833 360,371.5C 358.5,375.667 355.667,378.5 351.5,380C 287.5,380.667 223.5,380.667 159.5,380C 155.333,378.5 152.5,375.667 151,371.5C 150.333,320.833 150.333,270.167 151,219.5C 152.5,215.333 155.333,212.5 159.5,211C 164.823,210.501 170.156,210.334 175.5,210.5C 175.333,192.83 175.5,175.164 176,157.5C 183.68,120.654 205.847,98.3202 242.5,90.5 Z M 254.5,120.5 C 280.393,122.227 296.893,135.561 304,160.5C 305.333,177.137 305.833,193.803 305.5,210.5C 272.167,210.5 238.833,210.5 205.5,210.5C 205.167,193.803 205.667,177.137 207,160.5C 213.926,136.395 229.76,123.061 254.5,120.5 Z M 180.5,240.5 C 180.5,277.167 180.5,313.833 180.5,350.5C 230.5,350.5 280.5,350.5 330.5,350.5C 330.5,313.833 330.5,277.167 330.5,240.5C 280.5,240.5 230.5,240.5 180.5,240.5 Z"/></g>
<g><path style="opacity:0.984" fill="#00b5d9" d="M 239.5,280.5 C 250.936,280.044 262.269,280.544 273.5,282C 276.473,283.765 278.64,286.265 280,289.5C 282.748,298.819 279.915,305.652 271.5,310C 260.069,310.955 248.736,310.622 237.5,309C 232.408,305.983 230.074,301.483 230.5,295.5C 230.643,288.709 233.643,283.709 239.5,280.5 Z"/></g>
</svg>
